<?xml version="1.0" encoding="UTF-8" standalone="no"?>
<!-- Created with Inkscape (http://www.inkscape.org/) -->

<svg
   xmlns:dc="http://purl.org/dc/elements/1.1/"
   xmlns:cc="http://creativecommons.org/ns#"
   xmlns:rdf="http://www.w3.org/1999/02/22-rdf-syntax-ns#"
   xmlns:svg="http://www.w3.org/2000/svg"
   xmlns="http://www.w3.org/2000/svg"
   xmlns:sodipodi="http://sodipodi.sourceforge.net/DTD/sodipodi-0.dtd"
   xmlns:inkscape="http://www.inkscape.org/namespaces/inkscape"
   width="1920"
   height="1028"
   viewBox="0 0 507.99999 271.99167"
   version="1.1"
   id="svg8"
   inkscape:version="0.92.3 (2405546, 2018-03-11)"
   sodipodi:docname="depths.svg">
  <defs
     id="defs2" />
  <sodipodi:namedview
     id="base"
     pagecolor="#ffffff"
     bordercolor="#666666"
     borderopacity="1.0"
     inkscape:pageopacity="0.0"
     inkscape:pageshadow="2"
     inkscape:zoom="0.49497475"
     inkscape:cx="1001.7497"
     inkscape:cy="679.34697"
     inkscape:document-units="mm"
     inkscape:current-layer="layer1"
     showgrid="false"
     inkscape:window-width="1920"
     inkscape:window-height="1015"
     inkscape:window-x="0"
     inkscape:window-y="0"
     inkscape:window-maximized="1"
     showguides="true"
     inkscape:guide-bbox="true"
     inkscape:snap-object-midpoints="true"
     inkscape:snap-global="false"
     units="px" />
  <metadata
     id="metadata5">
    <rdf:RDF>
      <cc:Work
         rdf:about="">
        <dc:format>image/svg+xml</dc:format>
        <dc:type
           rdf:resource="http://purl.org/dc/dcmitype/StillImage" />
        <dc:title></dc:title>
      </cc:Work>
    </rdf:RDF>
  </metadata>
  <g
     inkscape:label="Layer 1"
     inkscape:groupmode="layer"
     id="layer1"
     transform="translate(0,-25.008308)">
    <g
       id="g1006"
       transform="translate(550.71119,-358.62395)">
      <path
         id="rect895"
         d="M -550.7113,383.63214 H -42.711304 V 655.62381 H -550.7113 Z"
         style="fill:#000000;fill-rule:evenodd;stroke-width:1.01328874"
         inkscape:connector-curvature="0" />
      <path
         id="rect897"
         transform="scale(0.26458333)"
         d="m -2081.4277,1449.9492 v 1028 h 857.3183 l -49.6933,-31.1191 28.2851,-46.4668 c 0,0 -19.1941,-84.8532 -17.1738,-90.9141 2.0203,-6.0609 -1.0094,-90.9136 3.0312,-91.9238 4.0407,-1.0101 -23.2343,-94.9551 -23.2343,-94.9551 l 35.3554,-67.6797 -13.1308,-103.0351 15.1523,-93.9453 -26.2636,-35.3555 -4.0411,-107.0762 27.2735,-40.4062 -8.0801,-111.1153 -13.1328,-58.5898 29.2949,-12.1211 16.3574,-43.2969 z"
         style="fill:#00003b;fill-opacity:1;fill-rule:evenodd;stroke-width:2.55912495"
         inkscape:connector-curvature="0" />
      <path
         id="rect901"
         transform="scale(0.26458333)"
         d="m -2081.4277,1449.9492 v 1028 h 772.4668 l -57.7754,-40.2109 c 0,0 13.1316,-41.4166 26.2636,-50.5078 13.1321,-9.0914 -8.08,-49.4981 -8.08,-49.4981 l -17.1739,-81.8222 c 0,0 21.2129,-82.8318 21.2129,-93.9434 0,-11.1117 -13.1308,-118.1875 -13.1308,-118.1875 0,0 10.1015,-60.6097 10.1015,-64.6504 0,-4.0406 -29.2949,-62.6289 -29.2949,-62.6289 l 30.3047,-69.7012 28.2832,-45.457 -13.1309,-117.1777 -15.1523,-79.8008 20.2031,-63.6406 -10.1015,-56.5684 27.4687,-34.2051 z"
         style="fill:#00005c;fill-opacity:1;fill-rule:evenodd;stroke-width:2.42918181"
         inkscape:connector-curvature="0" />
      <path
         id="rect903"
         transform="scale(0.26458333)"
         d="m -2081.4277,1449.9492 v 1028 h 675.4922 l -48.6836,-27.0781 -14.1426,-129.3008 32.3242,-64.6484 20.2031,-47.4785 -8.0801,-76.7715 -28.2851,-85.8633 -20.2031,-12.1211 32.3261,-47.4766 -37.3769,-33.3359 27.2754,-50.5078 5.0508,-65.6602 -14.1426,-72.7304 c 0,0 24.2422,-42.4255 29.2929,-48.4864 5.0509,-6.0609 -22.2226,-72.7324 -22.2226,-72.7324 0,0 21.2129,-20.2031 26.2637,-20.2031 5.0508,0 -23.2332,-58.5883 -21.2129,-62.6289 2.0203,-4.0406 18.1836,-42.4258 18.1836,-42.4258 l -20.2032,-36.3652 43.6309,-32.1856 z"
         style="fill:#00276a;fill-opacity:1;fill-rule:evenodd;stroke-width:2.27159166"
         inkscape:connector-curvature="0" />
      <path
         id="rect905"
         transform="scale(0.26458333)"
         d="m -2081.4277,1449.9492 v 1028 h 578.5175 l -51.375,-29.7148 -50,-51.4297 -5.7148,-174.2852 5.7148,-80 27.1426,-115.7148 -27.1426,-121.4277 -50,-132.8575 -91.4296,-137.1425 62.8574,-77.1426 98.5722,-10 34.2852,-58.5723 47.0879,-39.7129 z"
         style="fill:#003e76;fill-opacity:1;fill-rule:evenodd;stroke-width:2.10222077"
         inkscape:connector-curvature="0" />
      <path
         sodipodi:nodetypes="cccccccccccccccccc"
         inkscape:connector-curvature="0"
         id="rect913"
         transform="scale(0.26458333)"
         d="m -965.20991,1449.9492 -10.10153,41.864 1.70402,84.3958 -42.91018,74.8848 41.16213,56.6718 -4.15625,123.5821 -39.23628,50.2734 v 69.4668 l 30.0273,66.7891 -4.90821,149.9121 -32.19019,50.8983 7.0711,62.2364 -47.815,189.6238 85.80128,6.0872 -1.00781,1.3144 h 820.3418 v -1028 z"
         style="fill:#00003b;fill-opacity:1;fill-rule:evenodd;stroke-width:2.55912495" />
      <path
         sodipodi:nodetypes="cccccccccccccccccccccc"
         inkscape:connector-curvature="0"
         id="rect915"
         transform="scale(0.26458333)"
         d="m -895.50873,1449.9492 -20.70025,41.2754 43.4375,39.3965 -23.23438,30.3047 21.21289,38.3867 -15.15234,65.6582 20.20312,54.5488 -23.23242,42.4258 -1.01085,101.0161 29.29468,69.7015 -44.44594,76.7707 22.22266,68.6894 20.20312,48.4883 -20.20312,51.5176 15.15234,71.7207 -35.35547,50.5078 16.16211,77.7813 -28.2832,46.4668 -14.65625,53.3437 h 772.4668 v -1028 z"
         style="fill:#00005c;fill-opacity:1;fill-rule:evenodd;stroke-width:2.42918181" />
      <path
         id="rect917"
         transform="scale(0.26458333)"
         d="m -836.91992,1449.9492 18.69726,69.5606 -4.04101,53.5371 13.13086,27.2754 29.29492,102.0254 -25.25391,47.4765 -6.06054,114.1465 c 0,0 44.44725,52.5297 39.39648,56.5703 -5.05073,4.0406 -29.29492,60.6074 -29.29492,60.6074 l 1.00976,126.2696 6.06055,70.7109 c 0,0 -26.26289,58.5883 -28.2832,67.6797 -2.02031,9.0914 8.08008,61.6191 8.08008,61.6191 0,0 13.1324,28.2861 4.04101,31.3164 -9.09135,3.0305 21.21289,69.6993 21.21289,69.6993 l -30.30469,41.416 -17.68554,28.0898 h 675.49219 v -1028 z"
         style="fill:#00276a;fill-opacity:1;fill-rule:evenodd;stroke-width:2.27159166"
         inkscape:connector-curvature="0" />
      <path
         sodipodi:nodetypes="cccccccccccccccccccc"
         inkscape:connector-curvature="0"
         id="rect919"
         transform="scale(0.26458333)"
         d="m -739.94336,1449.9492 45.96875,35.2149 67.67969,82.832 c 0,0 -43.43636,32.3261 -41.41602,37.3769 -32.35015,15.5115 30.15764,91.1775 57.57813,82.8321 l -77.78125,51.5176 c -24.06423,32.2938 97.27272,15.0779 74.75061,58.5898 0,0 54.54817,48.4875 49.49743,50.5078 -5.05077,2.0203 -35.35349,60.6076 -38.38392,64.6482 -3.03046,4.0406 -50.50824,26.264 -50.50824,26.264 0,0 59.59957,101.0151 53.53865,107.0761 -68.69035,13.132 -39.39649,48.4883 -39.39649,48.4883 l 4.04102,90.914 -40.40625,73.7403 40.40625,136.3711 -54.54883,60.6093 -51.02148,21.0176 h 578.51758 v -1028 z"
         style="fill:#003e76;fill-opacity:1;fill-rule:evenodd;stroke-width:2.10222077" />
    </g>
  </g>
</svg>
