<?xml version="1.0" encoding="UTF-8" standalone="no"?>
<!-- Created with Inkscape (http://www.inkscape.org/) -->

<svg
   xmlns:dc="http://purl.org/dc/elements/1.1/"
   xmlns:cc="http://creativecommons.org/ns#"
   xmlns:rdf="http://www.w3.org/1999/02/22-rdf-syntax-ns#"
   xmlns:svg="http://www.w3.org/2000/svg"
   xmlns="http://www.w3.org/2000/svg"
   xmlns:sodipodi="http://sodipodi.sourceforge.net/DTD/sodipodi-0.dtd"
   xmlns:inkscape="http://www.inkscape.org/namespaces/inkscape"
   width="40"
   height="40"
   viewBox="0 0 10.583333 10.583333"
   version="1.1"
   id="svg8"
   inkscape:version="0.92.3 (2405546, 2018-03-11)"
   sodipodi:docname="sus.svg">
  <defs
     id="defs2" />
  <sodipodi:namedview
     id="base"
     pagecolor="#ffffff"
     bordercolor="#666666"
     borderopacity="1.0"
     inkscape:pageopacity="0.0"
     inkscape:pageshadow="2"
     inkscape:zoom="4"
     inkscape:cx="-7.93653"
     inkscape:cy="-4.3572358"
     inkscape:document-units="px"
     inkscape:current-layer="layer1"
     showgrid="false"
     inkscape:window-width="1920"
     inkscape:window-height="1015"
     inkscape:window-x="0"
     inkscape:window-y="0"
     inkscape:window-maximized="1"
     showguides="true"
     inkscape:guide-bbox="true"
     inkscape:snap-object-midpoints="true"
     inkscape:snap-global="false"
     units="px"
     inkscape:snap-bbox="true">
    <sodipodi:guide
       position="51.048479,178.66968"
       orientation="0,1"
       id="guide858"
       inkscape:locked="false" />
    <sodipodi:guide
       position="75.23637,178.66968"
       orientation="1,0"
       id="guide860"
       inkscape:locked="false" />
  </sodipodi:namedview>
  <metadata
     id="metadata5">
    <rdf:RDF>
      <cc:Work
         rdf:about="">
        <dc:format>image/svg+xml</dc:format>
        <dc:type
           rdf:resource="http://purl.org/dc/dcmitype/StillImage" />
        <dc:title />
      </cc:Work>
    </rdf:RDF>
  </metadata>
  <g
     inkscape:label="Layer 1"
     inkscape:groupmode="layer"
     id="layer1"
     transform="translate(0,-286.41667)">
    <rect
       style="fill:#006776;fill-opacity:1;fill-rule:evenodd;stroke-width:0.30802238"
       id="rect922"
       width="10.318749"
       height="10.318749"
       x="0.13229178"
       y="286.54895"
       ry="2.1946597" />
    <path
       inkscape:connector-curvature="0"
       id="path1073"
       d="m 1.654569,288.35416 a 0.36222867,0.36222867 0 0 0 -0.00703,0.49378 l 0.00118,0.001 a 0.36222867,0.36222867 0 0 0 0.047235,0.0431 l 1.4026792,1.2893 a 0.36222867,0.36222867 0 0 0 2.629e-4,3.9e-4 l 0.00118,10e-4 a 0.36222867,0.36222867 0 0 0 0.5114329,0.0232 0.36222867,0.36222867 0 0 0 0.023882,-0.51141 0.36222867,0.36222867 0 0 0 -0.046997,-0.0431 l 9.2e-4,-10e-4 -1.4513792,-1.33406 -9.199e-4,0.001 a 0.36222867,0.36222867 0 0 0 -0.4643929,0.0186 0.36222867,0.36222867 0 0 0 -0.018051,0.0176 z"
       style="fill:#45339f;fill-opacity:1;fill-rule:evenodd;stroke-width:0.03355481" />
    <path
       style="fill:#45339f;fill-opacity:1;fill-rule:evenodd;stroke-width:0.03355481"
       d="m 0.34814617,291.90946 a 0.36222867,0.36222867 0 0 0 0.34418347,0.35413 l 0.001695,6e-5 a 0.36222867,0.36222867 0 0 0 0.0639133,-0.003 l 1.90351696,-0.0802 a 0.36222867,0.36222867 0 0 0 5.257e-4,6e-5 l 0.00171,5e-5 a 0.36222867,0.36222867 0 0 0 0.3780826,-0.34519 0.36222867,0.36222867 0 0 0 -0.3447354,-0.37851 0.36222867,0.36222867 0 0 0 -0.063712,0.003 l -8.94e-5,-10e-4 -1.96960659,0.0829 5.914e-5,10e-4 a 0.36222867,0.36222867 0 0 0 -0.31522322,0.34152 0.36222867,0.36222867 0 0 0 -2.6285e-4,0.0252 z"
       id="path1075"
       inkscape:connector-curvature="0" />
    <path
       inkscape:connector-curvature="0"
       id="path1077"
       d="m 1.9383429,295.34722 a 0.36222867,0.36222867 0 0 0 0.4937829,0.007 l 0.00118,-10e-4 a 0.36222867,0.36222867 0 0 0 0.043197,-0.0472 l 1.2892999,-1.40268 a 0.36222867,0.36222867 0 0 0 3.942e-4,-2.6e-4 l 0.00131,-10e-4 a 0.36222867,0.36222867 0 0 0 0.023255,-0.51143 0.36222867,0.36222867 0 0 0 -0.5114106,-0.0239 0.36222867,0.36222867 0 0 0 -0.043108,0.047 l -0.00105,-10e-4 -1.3340623,1.45138 0.00105,0.001 a 0.36222867,0.36222867 0 0 0 0.018599,0.46439 0.36222867,0.36222867 0 0 0 0.017632,0.0181 z"
       style="fill:#45339f;fill-opacity:1;fill-rule:evenodd;stroke-width:0.03355481" />
    <path
       style="fill:#45339f;fill-opacity:1;fill-rule:evenodd;stroke-width:0.03355481"
       d="m 5.0923296,286.76396 a 0.36222867,0.36222867 0 0 0 -0.3541295,0.34418 l -6.05e-5,0.002 a 0.36222867,0.36222867 0 0 0 0.00289,0.0639 l 0.080172,1.90351 a 0.36222867,0.36222867 0 0 0 -4.73e-5,5.3e-4 l -6.04e-5,0.002 a 0.36222867,0.36222867 0 0 0 0.3451941,0.37808 0.36222867,0.36222867 0 0 0 0.3785096,-0.34474 0.36222867,0.36222867 0 0 0 -0.00275,-0.0637 l 0.00142,-6e-5 -0.082956,-1.9696 -0.00142,6e-5 a 0.36222867,0.36222867 0 0 0 -0.3415261,-0.31522 0.36222867,0.36222867 0 0 0 -0.025231,-2.7e-4 z"
       id="path1079"
       inkscape:connector-curvature="0" />
    <g
       transform="matrix(-0.00553037,-0.131306,0.131306,-0.00553037,-9.8310526,302.24124)"
       id="g1083"
       style="opacity:1;fill:#8060aa;fill-opacity:0.74345547">
      <path
         inkscape:connector-curvature="0"
         transform="rotate(-135)"
         style="opacity:1;fill:#8060aa;fill-opacity:0.74345547;fill-rule:nonzero;stroke:none;stroke-width:4.88644886;stroke-linecap:round;stroke-miterlimit:4;stroke-dasharray:none;stroke-dashoffset:0;stroke-opacity:1"
         d="m -164.1523,-32.981107 a 27.395124,27.395124 0 0 1 29.75669,-24.773861 27.395124,27.395124 0 0 1 24.80916,29.727258 27.395124,27.395124 0 0 1 -29.6978,24.8444229 27.395124,27.395124 0 0 1 -24.87965,-29.6682859"
         id="path1081" />
    </g>
    <path
       style="fill:#45339f;fill-opacity:1;fill-rule:evenodd;stroke-width:0.03355481"
       d="m 8.9287626,295.06249 a 0.36222867,0.36222867 0 0 0 0.00703,-0.49378 l -0.00105,-0.001 a 0.36222867,0.36222867 0 0 0 -0.047236,-0.0432 l -1.4027818,-1.28923 a 0.36222867,0.36222867 0 0 0 -2.628e-4,-3.9e-4 l -0.00118,-0.001 a 0.36222867,0.36222867 0 0 0 -0.5114329,-0.0233 0.36222867,0.36222867 0 0 0 -0.023882,0.51141 0.36222867,0.36222867 0 0 0 0.046997,0.0431 l -9.199e-4,10e-4 1.4513791,1.33406 9.2e-4,-0.001 a 0.36222867,0.36222867 0 0 0 0.4643916,-0.0186 0.36222867,0.36222867 0 0 0 0.018051,-0.0176 z"
       id="path1085"
       inkscape:connector-curvature="0" />
    <path
       inkscape:connector-curvature="0"
       id="path1087"
       d="m 10.235185,291.50719 a 0.36222867,0.36222867 0 0 0 -0.344183,-0.35413 l -0.0017,-6e-5 a 0.36222867,0.36222867 0 0 0 -0.063912,0.003 l -1.903517,0.0802 a 0.36222867,0.36222867 0 0 0 -5.257e-4,-5e-5 l -0.00171,-6e-5 a 0.36222867,0.36222867 0 0 0 -0.3780812,0.34519 0.36222867,0.36222867 0 0 0 0.3447341,0.37851 0.36222867,0.36222867 0 0 0 0.063714,-0.003 l 8.94e-5,10e-4 1.9696066,-0.0829 -6.04e-5,-10e-4 a 0.36222867,0.36222867 0 0 0 0.3152242,-0.34152 0.36222867,0.36222867 0 0 0 2.63e-4,-0.0252 z"
       style="fill:#45339f;fill-opacity:1;fill-rule:evenodd;stroke-width:0.03355481" />
    <path
       style="opacity:1;fill:#4c2fa3;fill-opacity:0.91623038;fill-rule:evenodd;stroke-width:0.03355481"
       d="m 8.6449901,288.06943 a 0.36222867,0.36222867 0 0 0 -0.4937829,-0.007 l -0.00118,10e-4 a 0.36222867,0.36222867 0 0 0 -0.043196,0.0472 l -1.2892999,1.40268 a 0.36222867,0.36222867 0 0 0 -3.942e-4,2.6e-4 l -0.00131,10e-4 a 0.36222867,0.36222867 0 0 0 -0.023257,0.51144 0.36222867,0.36222867 0 0 0 0.511412,0.0239 0.36222867,0.36222867 0 0 0 0.043106,-0.047 l 0.00105,0.001 1.3340636,-1.45138 -0.00105,-10e-4 a 0.36222867,0.36222867 0 0 0 -0.018638,-0.46439 0.36222867,0.36222867 0 0 0 -0.017633,-0.0181 z"
       id="path1089"
       inkscape:connector-curvature="0" />
    <path
       inkscape:connector-curvature="0"
       id="path1091"
       d="m 5.4910021,296.65269 a 0.36222867,0.36222867 0 0 0 0.3541308,-0.34418 l 5.92e-5,-0.002 a 0.36222867,0.36222867 0 0 0 -0.00289,-0.0639 l -0.080173,-1.90351 a 0.36222867,0.36222867 0 0 0 4.6e-5,-5.3e-4 l 5.92e-5,-0.002 a 0.36222867,0.36222867 0 0 0 -0.3451928,-0.37809 0.36222867,0.36222867 0 0 0 -0.3785097,0.34474 0.36222867,0.36222867 0 0 0 0.00275,0.0637 l -0.00142,6e-5 0.082955,1.9696 0.00142,-6e-5 a 0.36222867,0.36222867 0 0 0 0.3415248,0.31523 0.36222867,0.36222867 0 0 0 0.025232,2.6e-4 z"
       style="fill:#45339f;fill-opacity:1;fill-rule:evenodd;stroke-width:0.03355481" />
    <path
       inkscape:connector-curvature="0"
       id="path1095"
       d="m 2.2199702,290.87621 a 0.77223161,0.72074951 87.588231 0 1 0.752803,-0.73067 0.77223161,0.72074951 87.588231 0 1 0.6873965,0.80976 0.77223161,0.72074951 87.588231 0 1 -0.7511677,0.73259 0.77223161,0.72074951 87.588231 0 1 -0.6891817,-0.80803"
       style="opacity:1;fill:#c7baff;fill-opacity:1;fill-rule:nonzero;stroke:none;stroke-width:0.96099925;stroke-linecap:round;stroke-miterlimit:4;stroke-dasharray:none;stroke-dashoffset:0;stroke-opacity:1" />
    <path
       inkscape:connector-curvature="0"
       id="path1097"
       d="m 5.2079036,291.28309 a 0.8482837,0.81084321 87.588231 0 1 0.8476785,-0.8035 0.8482837,0.81084321 87.588231 0 1 0.7723883,0.88878 0.8482837,0.81084321 87.588231 0 1 -0.8458462,0.80561 0.8482837,0.81084321 87.588231 0 1 -0.7743957,-0.88687"
       style="opacity:1;fill:#c7baff;fill-opacity:1;fill-rule:nonzero;stroke:none;stroke-width:1.06830716;stroke-linecap:round;stroke-miterlimit:4;stroke-dasharray:none;stroke-dashoffset:0;stroke-opacity:1" />
    <g
       id="g1105"
       transform="matrix(0.1008788,0.00957908,-0.00957908,0.1008788,-27.302324,273.35744)"
       style="stroke:#c7baff;stroke-width:3.16770029;stroke-miterlimit:4;stroke-dasharray:none;stroke-opacity:1">
      <path
         inkscape:connector-curvature="0"
         id="path1099"
         d="m 314.92559,-160.6115 a 6.8774905,6.5155807 0 0 1 0.56444,-6.60333 6.8774905,6.5155807 0 0 1 6.37555,-2.7217 6.8774905,6.5155807 0 0 1 5.59529,3.97377"
         style="opacity:1;fill:none;fill-opacity:1;fill-rule:nonzero;stroke:#c7baff;stroke-width:3.16770029;stroke-linecap:round;stroke-miterlimit:4;stroke-dasharray:none;stroke-dashoffset:0;stroke-opacity:1"
         transform="scale(1,-1)" />
      <path
         inkscape:connector-curvature="0"
         id="path1101"
         d="m -340.00721,-160.65874 a 6.8774905,6.5155807 0 0 1 0.56444,-6.60333 6.8774905,6.5155807 0 0 1 6.37555,-2.7217 6.8774905,6.5155807 0 0 1 5.59529,3.97377"
         style="opacity:1;fill:none;fill-opacity:1;fill-rule:nonzero;stroke:#c7baff;stroke-width:3.16770029;stroke-linecap:round;stroke-miterlimit:4;stroke-dasharray:none;stroke-dashoffset:0;stroke-opacity:1"
         transform="scale(-1)" />
    </g>
    <path
       transform="matrix(0.13142241,0,0,0.13142241,-74.107083,253.8943)"
       inkscape:connector-curvature="0"
       id="path955"
       d="m 588.47284,273.3515 8.92268,6.69843 14.14974,-4.89168"
       style="fill:none;stroke:#c7baff;stroke-width:2.42328835;stroke-linecap:round;stroke-linejoin:miter;stroke-miterlimit:4;stroke-dasharray:none;stroke-opacity:1" />
  </g>
</svg>
