<?xml version="1.0" encoding="UTF-8" standalone="no"?>
<!-- Created with Inkscape (http://www.inkscape.org/) -->

<svg
   xmlns:dc="http://purl.org/dc/elements/1.1/"
   xmlns:cc="http://creativecommons.org/ns#"
   xmlns:rdf="http://www.w3.org/1999/02/22-rdf-syntax-ns#"
   xmlns:svg="http://www.w3.org/2000/svg"
   xmlns="http://www.w3.org/2000/svg"
   xmlns:sodipodi="http://sodipodi.sourceforge.net/DTD/sodipodi-0.dtd"
   xmlns:inkscape="http://www.inkscape.org/namespaces/inkscape"
   width="40"
   height="40"
   viewBox="0 0 10.583333 10.583333"
   version="1.1"
   id="svg8"
   inkscape:version="0.92.3 (2405546, 2018-03-11)"
   sodipodi:docname="lowSus.svg">
  <defs
     id="defs2" />
  <sodipodi:namedview
     id="base"
     pagecolor="#ffffff"
     bordercolor="#666666"
     borderopacity="1.0"
     inkscape:pageopacity="0.0"
     inkscape:pageshadow="2"
     inkscape:zoom="11.313709"
     inkscape:cx="-36.165466"
     inkscape:cy="49.000752"
     inkscape:document-units="px"
     inkscape:current-layer="layer1"
     showgrid="false"
     inkscape:window-width="1920"
     inkscape:window-height="1015"
     inkscape:window-x="0"
     inkscape:window-y="0"
     inkscape:window-maximized="1"
     showguides="true"
     inkscape:guide-bbox="true"
     inkscape:snap-object-midpoints="true"
     inkscape:snap-global="false"
     units="px"
     inkscape:snap-bbox="true">
    <sodipodi:guide
       position="51.048479,178.66968"
       orientation="0,1"
       id="guide858"
       inkscape:locked="false" />
    <sodipodi:guide
       position="75.23637,178.66968"
       orientation="1,0"
       id="guide860"
       inkscape:locked="false" />
  </sodipodi:namedview>
  <metadata
     id="metadata5">
    <rdf:RDF>
      <cc:Work
         rdf:about="">
        <dc:format>image/svg+xml</dc:format>
        <dc:type
           rdf:resource="http://purl.org/dc/dcmitype/StillImage" />
        <dc:title></dc:title>
      </cc:Work>
    </rdf:RDF>
  </metadata>
  <g
     inkscape:label="Layer 1"
     inkscape:groupmode="layer"
     id="layer1"
     transform="translate(0,-286.41667)">
    <rect
       style="fill:#006776;fill-opacity:1;fill-rule:evenodd;stroke-width:0.30802238"
       id="rect922"
       width="10.318749"
       height="10.318749"
       x="0.13229178"
       y="286.54895"
       ry="2.1946597" />
    <path
       inkscape:connector-curvature="0"
       id="path1073"
       d="m 0.73783956,289.77401 a 0.36222867,0.36222867 0 0 0 0.15957415,0.46734 l 0.001448,5.4e-4 a 0.36222867,0.36222867 0 0 0 0.0589855,0.0247 l 1.75478832,0.74197 a 0.36222867,0.36222867 0 0 0 3.789e-4,2.8e-4 l 0.00145,5.4e-4 a 0.36222867,0.36222867 0 0 0 0.4894027,-0.15029 0.36222867,0.36222867 0 0 0 -0.1496391,-0.48961 0.36222867,0.36222867 0 0 0 -0.058761,-0.0248 l 5.298e-4,-0.001 -1.8157121,-0.76772 -5.297e-4,0.001 a 0.36222867,0.36222867 0 0 0 -0.43103838,0.17381 0.36222867,0.36222867 0 0 0 -0.0110741,0.0226 z"
       style="fill:#00819f;fill-opacity:1;fill-rule:evenodd;stroke-width:0.03355481" />
    <path
       style="fill:#00819f;fill-opacity:1;fill-rule:evenodd;stroke-width:0.03355481"
       d="m 0.70426287,293.56159 a 0.36222867,0.36222867 0 0 0 0.44329393,0.21763 l 0.00162,-5.2e-4 a 0.36222867,0.36222867 0 0 0 0.059175,-0.0243 l 1.7654661,-0.71619 a 0.36222867,0.36222867 0 0 0 5.152e-4,-1.2e-4 l 0.00163,-5.3e-4 a 0.36222867,0.36222867 0 0 0 0.2398417,-0.4523 0.36222867,0.36222867 0 0 0 -0.4520194,-0.2404 0.36222867,0.36222867 0 0 0 -0.058985,0.0243 l -4.208e-4,-9.1e-4 -1.82679108,0.74098 3.9226e-4,9.2e-4 a 0.36222867,0.36222867 0 0 0 -0.18188495,0.42769 0.36222867,0.36222867 0 0 0 0.008234,0.0238 z"
       id="path1075"
       inkscape:connector-curvature="0" />
    <path
       inkscape:connector-curvature="0"
       id="path1077"
       d="m 3.3587463,296.26356 a 0.36222867,0.36222867 0 0 0 0.46733,-0.1596 l 7.745e-4,-0.001 a 0.36222867,0.36222867 0 0 0 0.02479,-0.059 l 0.7419709,-1.75479 a 0.36222867,0.36222867 0 0 0 2.837e-4,-3.7e-4 l 8.97e-4,-0.001 a 0.36222867,0.36222867 0 0 0 -0.1502364,-0.48942 0.36222867,0.36222867 0 0 0 -0.4896173,0.14963 0.36222867,0.36222867 0 0 0 -0.024774,0.0588 l -0.00133,-5.8e-4 -0.7677305,1.81571 0.00133,5.9e-4 a 0.36222867,0.36222867 0 0 0 0.173816,0.43103 0.36222867,0.36222867 0 0 0 0.022695,0.0111 z"
       style="fill:#00819f;fill-opacity:1;fill-rule:evenodd;stroke-width:0.03355481" />
    <path
       style="fill:#00819f;fill-opacity:1;fill-rule:evenodd;stroke-width:0.03355481"
       d="m 3.4398082,287.11952 a 0.36222867,0.36222867 0 0 0 -0.217626,0.44329 l 6.161e-4,0.002 a 0.36222867,0.36222867 0 0 0 0.024229,0.0592 l 0.7161683,1.76546 a 0.36222867,0.36222867 0 0 0 1.339e-4,5.2e-4 l 6.163e-4,0.002 a 0.36222867,0.36222867 0 0 0 0.4523066,0.23984 0.36222867,0.36222867 0 0 0 0.2403952,-0.45202 0.36222867,0.36222867 0 0 0 -0.024029,-0.0591 l 0.00132,-5.3e-4 -0.7410342,-1.82677 -0.00132,5.3e-4 a 0.36222867,0.36222867 0 0 0 -0.4276955,-0.18188 0.36222867,0.36222867 0 0 0 -0.02385,0.008 z"
       id="path1079"
       inkscape:connector-curvature="0" />
    <g
       transform="matrix(-0.04940203,-0.12178379,0.12178379,-0.04940203,-5.4036287,306.71664)"
       id="g1083"
       style="opacity:1;fill:#5a99a4;fill-opacity:0.74345547">
      <path
         inkscape:connector-curvature="0"
         transform="rotate(-135)"
         style="opacity:1;fill:#5a99a4;fill-opacity:0.74345547;fill-rule:nonzero;stroke:none;stroke-width:4.88644886;stroke-linecap:round;stroke-miterlimit:4;stroke-dasharray:none;stroke-dashoffset:0;stroke-opacity:1"
         d="m -164.1523,-32.981107 a 27.395124,27.395124 0 0 1 29.75669,-24.773861 27.395124,27.395124 0 0 1 24.80916,29.727258 27.395124,27.395124 0 0 1 -29.6978,24.8444229 27.395124,27.395124 0 0 1 -24.87965,-29.6682859"
         id="path1081" />
    </g>
    <path
       style="fill:#00819f;fill-opacity:1;fill-rule:evenodd;stroke-width:0.03355481"
       d="M 9.8454886,293.64264 A 0.36222867,0.36222867 0 0 0 9.6859144,293.1753 l -0.00133,-5.8e-4 a 0.36222867,0.36222867 0 0 0 -0.05902,-0.0248 l -1.7548614,-0.74187 a 0.36222867,0.36222867 0 0 0 -3.788e-4,-2.8e-4 l -0.00145,-5.4e-4 a 0.36222867,0.36222867 0 0 0 -0.4894364,0.1502 0.36222867,0.36222867 0 0 0 0.1496392,0.48961 0.36222867,0.36222867 0 0 0 0.058761,0.0248 l -5.297e-4,0.001 1.8157121,0.76773 5.297e-4,-0.001 a 0.36222867,0.36222867 0 0 0 0.4310372,-0.17382 0.36222867,0.36222867 0 0 0 0.011074,-0.0226 z"
       id="path1085"
       inkscape:connector-curvature="0" />
    <path
       inkscape:connector-curvature="0"
       id="path1087"
       d="m 9.8790649,289.85506 a 0.36222867,0.36222867 0 0 0 -0.4432936,-0.21763 l -0.00162,5.2e-4 a 0.36222867,0.36222867 0 0 0 -0.059173,0.0243 l -1.7654662,0.71619 a 0.36222867,0.36222867 0 0 0 -5.118e-4,1.3e-4 l -0.00163,5.2e-4 a 0.36222867,0.36222867 0 0 0 -0.2398403,0.45231 0.36222867,0.36222867 0 0 0 0.4520182,0.24039 0.36222867,0.36222867 0 0 0 0.058987,-0.0243 l 4.208e-4,9.2e-4 1.8267911,-0.74099 -3.934e-4,-9.2e-4 a 0.36222867,0.36222867 0 0 0 0.1818858,-0.42769 0.36222867,0.36222867 0 0 0 -0.00823,-0.0238 z"
       style="fill:#0084a2;fill-opacity:0.91764706;fill-rule:evenodd;stroke-width:0.03355481" />
    <path
       style="opacity:1;fill:#00819f;fill-opacity:1;fill-rule:evenodd;stroke-width:0.03355481"
       d="m 7.2245832,287.15309 a 0.36222867,0.36222867 0 0 0 -0.46733,0.1596 l -7.746e-4,0.001 a 0.36222867,0.36222867 0 0 0 -0.024789,0.059 l -0.7419709,1.75479 a 0.36222867,0.36222867 0 0 0 -2.837e-4,3.7e-4 l -8.97e-4,0.001 a 0.36222867,0.36222867 0 0 0 0.1502378,0.48943 0.36222867,0.36222867 0 0 0 0.4896187,-0.14963 0.36222867,0.36222867 0 0 0 0.024772,-0.0588 l 0.00133,5.8e-4 0.7677317,-1.81571 -0.00133,-5.9e-4 a 0.36222867,0.36222867 0 0 0 -0.1738527,-0.43102 0.36222867,0.36222867 0 0 0 -0.022696,-0.0111 z"
       id="path1089"
       inkscape:connector-curvature="0" />
    <path
       inkscape:connector-curvature="0"
       id="path1091"
       d="m 7.14352,296.29713 a 0.36222867,0.36222867 0 0 0 0.2176273,-0.44329 l -6.174e-4,-0.002 a 0.36222867,0.36222867 0 0 0 -0.024229,-0.0592 L 6.620132,294.02727 a 0.36222867,0.36222867 0 0 0 -1.35e-4,-5.2e-4 l -6.174e-4,-0.002 a 0.36222867,0.36222867 0 0 0 -0.4523088,-0.23985 0.36222867,0.36222867 0 0 0 -0.2403953,0.45202 0.36222867,0.36222867 0 0 0 0.024029,0.0591 l -0.00132,5.4e-4 0.7410333,1.82676 0.00132,-5.3e-4 a 0.36222867,0.36222867 0 0 0 0.4276977,0.18189 0.36222867,0.36222867 0 0 0 0.023847,-0.008 z"
       style="fill:#00819f;fill-opacity:1;fill-rule:evenodd;stroke-width:0.03355481" />
    <path
       inkscape:connector-curvature="0"
       id="path1095"
       d="m 2.9360376,292.14942 a 0.63025792,0.58824073 67.91989 0 1 0.3778418,-0.76835 0.63025792,0.58824073 67.91989 0 1 0.7507245,0.4335 0.63025792,0.58824073 67.91989 0 1 -0.3760571,0.76937 0.63025792,0.58824073 67.91989 0 1 -0.7516213,-0.43168"
       style="opacity:1;fill:#80e5ff;fill-opacity:1;fill-rule:nonzero;stroke:none;stroke-width:0.78432095;stroke-linecap:round;stroke-miterlimit:4;stroke-dasharray:none;stroke-dashoffset:0;stroke-opacity:1" />
    <path
       inkscape:connector-curvature="0"
       id="path1097"
       d="m 5.2813184,291.10877 a 0.97530892,0.93226193 67.91989 0 1 0.6068171,-1.19796 0.97530892,0.93226193 67.91989 0 1 1.1801752,0.66337 0.97530892,0.93226193 67.91989 0 1 -0.6040203,1.19952 0.97530892,0.93226193 67.91989 0 1 -1.1816084,-0.66052"
       style="opacity:1;fill:#80e5ff;fill-opacity:1;fill-rule:nonzero;stroke:none;stroke-width:1.22827959;stroke-linecap:round;stroke-miterlimit:4;stroke-dasharray:none;stroke-dashoffset:0;stroke-opacity:1" />
  </g>
</svg>
