<?xml version="1.0" encoding="UTF-8" standalone="no"?>
<!-- Created with Inkscape (http://www.inkscape.org/) -->

<svg
   xmlns:dc="http://purl.org/dc/elements/1.1/"
   xmlns:cc="http://creativecommons.org/ns#"
   xmlns:rdf="http://www.w3.org/1999/02/22-rdf-syntax-ns#"
   xmlns:svg="http://www.w3.org/2000/svg"
   xmlns="http://www.w3.org/2000/svg"
   xmlns:sodipodi="http://sodipodi.sourceforge.net/DTD/sodipodi-0.dtd"
   xmlns:inkscape="http://www.inkscape.org/namespaces/inkscape"
   width="39"
   height="39"
   viewBox="0 0 10.31875 10.31875"
   version="1.1"
   id="svg8"
   inkscape:version="0.92.3 (2405546, 2018-03-11)"
   sodipodi:docname="mine_awaken.svg">
  <defs
     id="defs2" />
  <sodipodi:namedview
     id="base"
     pagecolor="#ffffff"
     bordercolor="#666666"
     borderopacity="1.0"
     inkscape:pageopacity="0.0"
     inkscape:pageshadow="2"
     inkscape:zoom="11.2"
     inkscape:cx="21.806424"
     inkscape:cy="3.0461633"
     inkscape:document-units="mm"
     inkscape:current-layer="layer1"
     showgrid="false"
     inkscape:window-width="1920"
     inkscape:window-height="1015"
     inkscape:window-x="0"
     inkscape:window-y="0"
     inkscape:window-maximized="1"
     showguides="true"
     inkscape:guide-bbox="true"
     inkscape:snap-object-midpoints="true"
     inkscape:snap-global="false"
     units="px">
    <sodipodi:guide
       position="51.048479,178.66968"
       orientation="0,1"
       id="guide858"
       inkscape:locked="false" />
    <sodipodi:guide
       position="75.23637,178.66968"
       orientation="1,0"
       id="guide860"
       inkscape:locked="false" />
  </sodipodi:namedview>
  <metadata
     id="metadata5">
    <rdf:RDF>
      <cc:Work
         rdf:about="">
        <dc:format>image/svg+xml</dc:format>
        <dc:type
           rdf:resource="http://purl.org/dc/dcmitype/StillImage" />
        <dc:title />
      </cc:Work>
    </rdf:RDF>
  </metadata>
  <g
     inkscape:label="Layer 1"
     inkscape:groupmode="layer"
     id="layer1"
     transform="translate(0,-286.68123)">
    <g
       id="g1090"
       transform="rotate(24.25244,-4.3921372,314.34601)">
      <g
         transform="matrix(0.12825212,-0.00540086,0.00540175,0.12823099,-15.214985,275.13669)"
         id="g980">
        <path
           inkscape:connector-curvature="0"
           id="path960"
           d="m 48.650107,91.66225 a 2.7562169,2.7562169 0 0 0 -0.211571,3.751641 l 0.0084,0.0098 a 2.7562169,2.7562169 0 0 0 0.345274,0.343152 l 10.25078,10.250787 a 2.7562169,2.7562169 0 0 0 0.0022,0.003 l 0.0084,0.01 a 2.7562169,2.7562169 0 0 0 3.880625,0.34056 2.7562169,2.7562169 0 0 0 0.345312,-3.88026 2.7562169,2.7562169 0 0 0 -0.343482,-0.34276 l 0.0077,-0.008 -10.606675,-10.606675 -0.0077,0.0077 a 2.7562169,2.7562169 0 0 0 -3.536415,-0.0073 2.7562169,2.7562169 0 0 0 -0.142871,0.128262 z"
           style="fill:#4d4d4d;fill-rule:evenodd;stroke-width:0.25532031" />
        <path
           style="fill:#4d4d4d;fill-rule:evenodd;stroke-width:0.25532031"
           d="m 37.579877,118.27247 a 2.7562169,2.7562169 0 0 0 2.503208,2.80241 l 0.01287,9.9e-4 a 2.7562169,2.7562169 0 0 0 0.486791,-10e-4 l 14.496797,10e-6 a 2.7562169,2.7562169 0 0 0 0.0037,5.6e-4 l 0.01301,0.001 a 2.7562169,2.7562169 0 0 0 2.984829,-2.50321 2.7562169,2.7562169 0 0 0 -2.499586,-2.98793 2.7562169,2.7562169 0 0 0 -0.485246,5.1e-4 l -2.12e-4,-0.0111 H 40.09591 v 0.0109 a 2.7562169,2.7562169 0 0 0 -2.505785,2.49546 2.7562169,2.7562169 0 0 0 -0.01033,0.19172 z"
           id="path962"
           inkscape:connector-curvature="0" />
        <path
           inkscape:connector-curvature="0"
           id="path964"
           d="m 48.568295,144.91658 a 2.7562169,2.7562169 0 0 0 3.751639,0.21157 l 0.0098,-0.008 a 2.7562169,2.7562169 0 0 0 0.343506,-0.34492 l 10.250791,-10.25078 a 2.7562169,2.7562169 0 0 0 0.003,-0.002 l 0.0099,-0.008 a 2.7562169,2.7562169 0 0 0 0.340556,-3.88063 2.7562169,2.7562169 0 0 0 -3.88026,-0.34531 2.7562169,2.7562169 0 0 0 -0.34276,0.34348 l -0.008,-0.008 -10.606692,10.60669 0.0077,0.008 a 2.7562169,2.7562169 0 0 0 -0.0073,3.53641 2.7562169,2.7562169 0 0 0 0.128263,0.14287 z"
           style="fill:#4d4d4d;fill-rule:evenodd;stroke-width:0.25532031" />
        <path
           style="fill:#4d4d4d;fill-rule:evenodd;stroke-width:0.25532031"
           d="m 75.294215,80.673823 a 2.7562169,2.7562169 0 0 0 -2.802414,2.503207 l -10e-4,0.01292 a 2.7562169,2.7562169 0 0 0 0.0015,0.486791 v 14.496791 a 2.7562169,2.7562169 0 0 0 -5.16e-4,0.0036 l -10e-4,0.01292 a 2.7562169,2.7562169 0 0 0 2.503205,2.984828 2.7562169,2.7562169 0 0 0 2.987931,-2.499587 2.7562169,2.7562169 0 0 0 -5.16e-4,-0.485241 h 0.01085 V 83.189949 h -0.01085 a 2.7562169,2.7562169 0 0 0 -2.495454,-2.505792 2.7562169,2.7562169 0 0 0 -0.19172,-0.01033 z"
           id="path966"
           inkscape:connector-curvature="0" />
        <g
           transform="rotate(-90,75.222413,118.33617)"
           id="g970">
          <path
             style="opacity:1;fill:#666666;fill-opacity:1;fill-rule:nonzero;stroke:none;stroke-width:4.88644886;stroke-linecap:round;stroke-miterlimit:4;stroke-dasharray:none;stroke-dashoffset:0;stroke-opacity:1"
             id="path968"
             sodipodi:type="arc"
             sodipodi:cx="-136.87231"
             sodipodi:cy="-30.472029"
             sodipodi:rx="27.395124"
             sodipodi:ry="27.395124"
             sodipodi:start="3.2333097"
             sodipodi:end="3.2285624"
             sodipodi:open="true"
             d="m -164.1523,-32.981107 a 27.395124,27.395124 0 0 1 29.75669,-24.773861 27.395124,27.395124 0 0 1 24.80916,29.727258 27.395124,27.395124 0 0 1 -29.6978,24.8444229 27.395124,27.395124 0 0 1 -24.87965,-29.6682859"
             transform="rotate(-135)" />
        </g>
        <path
           style="fill:#4d4d4d;fill-rule:evenodd;stroke-width:0.25532031"
           d="m 101.80282,144.99029 a 2.7562169,2.7562169 0 0 0 0.21158,-3.75164 l -0.008,-0.01 a 2.7562169,2.7562169 0 0 0 -0.34528,-0.34315 L 91.409942,130.63491 a 2.7562169,2.7562169 0 0 0 -0.0022,-0.003 l -0.0084,-0.01 a 2.7562169,2.7562169 0 0 0 -3.880625,-0.34056 2.7562169,2.7562169 0 0 0 -0.345312,3.88026 2.7562169,2.7562169 0 0 0 0.343482,0.34276 l -0.0077,0.008 10.606675,10.60667 0.0077,-0.008 a 2.7562169,2.7562169 0 0 0 3.536418,0.007 2.7562169,2.7562169 0 0 0 0.14287,-0.12826 z"
           id="path972"
           inkscape:connector-curvature="0" />
        <path
           inkscape:connector-curvature="0"
           id="path974"
           d="m 112.87305,118.38007 a 2.7562169,2.7562169 0 0 0 -2.5032,-2.80241 l -0.0129,-9.9e-4 a 2.7562169,2.7562169 0 0 0 -0.48679,0.001 l -14.496801,-1e-5 a 2.7562169,2.7562169 0 0 0 -0.0037,-5.6e-4 l -0.01301,-0.001 a 2.7562169,2.7562169 0 0 0 -2.984829,2.50321 2.7562169,2.7562169 0 0 0 2.499586,2.98793 2.7562169,2.7562169 0 0 0 0.485246,-5.1e-4 l 2.12e-4,0.0111 h 15.000126 v -0.0109 a 2.7562169,2.7562169 0 0 0 2.50579,-2.49546 2.7562169,2.7562169 0 0 0 0.0103,-0.19172 z"
           style="fill:#4d4d4d;fill-rule:evenodd;stroke-width:0.25532031" />
        <path
           style="fill:#4d4d4d;fill-rule:evenodd;stroke-width:0.25532031"
           d="m 101.88464,91.73596 a 2.7562169,2.7562169 0 0 0 -3.751642,-0.21157 l -0.0098,0.008 a 2.7562169,2.7562169 0 0 0 -0.343506,0.34492 l -10.250791,10.25078 a 2.7562169,2.7562169 0 0 0 -0.003,0.002 l -0.0099,0.008 a 2.7562169,2.7562169 0 0 0 -0.340556,3.88063 2.7562169,2.7562169 0 0 0 3.88026,0.34531 2.7562169,2.7562169 0 0 0 0.34276,-0.34348 l 0.008,0.008 10.606695,-10.60669 -0.008,-0.008 a 2.7562169,2.7562169 0 0 0 0.007,-3.53641 2.7562169,2.7562169 0 0 0 -0.12827,-0.14287 z"
           id="path976"
           inkscape:connector-curvature="0" />
        <path
           inkscape:connector-curvature="0"
           id="path978"
           d="m 75.158717,155.97872 a 2.7562169,2.7562169 0 0 0 2.802414,-2.50321 l 0.001,-0.0129 a 2.7562169,2.7562169 0 0 0 -0.0015,-0.48679 v -14.49679 a 2.7562169,2.7562169 0 0 0 5.16e-4,-0.004 l 0.001,-0.0129 a 2.7562169,2.7562169 0 0 0 -2.503205,-2.98483 2.7562169,2.7562169 0 0 0 -2.987931,2.49959 2.7562169,2.7562169 0 0 0 5.16e-4,0.48524 h -0.01085 v 15.0001 h 0.01085 a 2.7562169,2.7562169 0 0 0 2.495454,2.50579 2.7562169,2.7562169 0 0 0 0.19172,0.0103 z"
           style="fill:#4d4d4d;fill-rule:evenodd;stroke-width:0.25532031" />
      </g>
      <g
         style="stroke:#000000"
         transform="matrix(0.05955417,0.00565411,-0.00565504,0.05954436,-25.074176,278.70481)"
         id="g986">
        <path
           sodipodi:open="true"
           d="m 314.92559,-160.6115 a 6.8774905,6.5155807 0 0 1 0.56444,-6.60333 6.8774905,6.5155807 0 0 1 6.37555,-2.7217 6.8774905,6.5155807 0 0 1 5.59529,3.97377"
           sodipodi:end="5.8889809"
           sodipodi:start="2.6890787"
           sodipodi:ry="6.5155807"
           sodipodi:rx="6.8774905"
           sodipodi:cy="-163.4603"
           sodipodi:cx="321.11087"
           sodipodi:type="arc"
           id="path982"
           style="opacity:1;fill:none;fill-opacity:1;fill-rule:nonzero;stroke:#000000;stroke-width:2;stroke-linecap:round;stroke-miterlimit:4;stroke-dasharray:none;stroke-dashoffset:0;stroke-opacity:1"
           transform="scale(1,-1)" />
        <path
           transform="scale(-1)"
           style="opacity:1;fill:none;fill-opacity:1;fill-rule:nonzero;stroke:#000000;stroke-width:2;stroke-linecap:round;stroke-miterlimit:4;stroke-dasharray:none;stroke-dashoffset:0;stroke-opacity:1"
           id="path984"
           sodipodi:type="arc"
           sodipodi:cx="-333.82193"
           sodipodi:cy="-163.50754"
           sodipodi:rx="6.8774905"
           sodipodi:ry="6.5155807"
           sodipodi:start="2.6890787"
           sodipodi:end="5.8889809"
           d="m -340.00721,-160.65874 a 6.8774905,6.5155807 0 0 1 0.56444,-6.60333 6.8774905,6.5155807 0 0 1 6.37555,-2.7217 6.8774905,6.5155807 0 0 1 5.59529,3.97377"
           sodipodi:open="true" />
      </g>
      <path
         style="fill:none;stroke:#000000;stroke-width:0.26458332px;stroke-linecap:butt;stroke-linejoin:miter;stroke-opacity:1"
         d="m -4.6479254,288.29471 0.236235,-0.33663"
         id="path938"
         inkscape:connector-curvature="0" />
      <path
         style="fill:none;stroke:#000000;stroke-width:0.26458332px;stroke-linecap:butt;stroke-linejoin:miter;stroke-opacity:1"
         d="m -4.9963724,288.1825 0.07678,-0.34844"
         id="path940"
         inkscape:connector-curvature="0" />
      <path
         style="fill:none;stroke:#000000;stroke-width:0.26458332px;stroke-linecap:butt;stroke-linejoin:miter;stroke-opacity:1"
         d="m -5.3211964,288.16478 -0.153552,-0.29529"
         id="path942"
         inkscape:connector-curvature="0" />
      <path
         style="fill:none;stroke:#000000;stroke-width:0.26458332px;stroke-linecap:butt;stroke-linejoin:miter;stroke-opacity:1"
         d="m -7.1538704,287.91286 -0.04134,-0.27758"
         id="path944"
         inkscape:connector-curvature="0" />
      <path
         style="fill:none;stroke:#000000;stroke-width:0.26458332px;stroke-linecap:butt;stroke-linejoin:miter;stroke-opacity:1"
         d="m -6.7985664,287.93062 0.111986,-0.26586"
         id="path946"
         inkscape:connector-curvature="0" />
      <path
         style="fill:none;stroke:#000000;stroke-width:0.26458332px;stroke-linecap:butt;stroke-linejoin:miter;stroke-opacity:1"
         d="m -7.4427354,288.03768 -0.195331,-0.20425"
         id="path948"
         inkscape:connector-curvature="0" />
      <circle
         style="opacity:1;fill:#ffffff;fill-opacity:1;fill-rule:evenodd;stroke:none;stroke-width:0.05291667;stroke-linecap:round;stroke-miterlimit:4;stroke-dasharray:none;stroke-dashoffset:0;stroke-opacity:1"
         id="circle950"
         cx="-5.1322079"
         cy="288.98572"
         r="0.89178753" />
      <circle
         r="0.78548175"
         cy="288.64908"
         cx="-6.9512167"
         id="circle952"
         style="opacity:1;fill:#ffffff;fill-opacity:1;fill-rule:evenodd;stroke:none;stroke-width:0.04660872;stroke-linecap:round;stroke-miterlimit:4;stroke-dasharray:none;stroke-dashoffset:0;stroke-opacity:1" />
      <circle
         style="opacity:1;fill:#000000;fill-opacity:1;fill-rule:evenodd;stroke:none;stroke-width:0.08664378;stroke-linecap:round;stroke-miterlimit:4;stroke-dasharray:none;stroke-dashoffset:0;stroke-opacity:1"
         id="circle954"
         cx="-6.8729429"
         cy="288.74698"
         r="0.62223685" />
      <circle
         r="0.62223685"
         cy="289.03928"
         cx="-5.1607485"
         id="circle956"
         style="opacity:1;fill:#000000;fill-opacity:1;fill-rule:evenodd;stroke:none;stroke-width:0.08664378;stroke-linecap:round;stroke-miterlimit:4;stroke-dasharray:none;stroke-dashoffset:0;stroke-opacity:1" />
    </g>
  </g>
</svg>
