<?xml version="1.0" encoding="UTF-8" standalone="no"?>
<!-- Created with Inkscape (http://www.inkscape.org/) -->

<svg
   xmlns:dc="http://purl.org/dc/elements/1.1/"
   xmlns:cc="http://creativecommons.org/ns#"
   xmlns:rdf="http://www.w3.org/1999/02/22-rdf-syntax-ns#"
   xmlns:svg="http://www.w3.org/2000/svg"
   xmlns="http://www.w3.org/2000/svg"
   xmlns:sodipodi="http://sodipodi.sourceforge.net/DTD/sodipodi-0.dtd"
   xmlns:inkscape="http://www.inkscape.org/namespaces/inkscape"
   width="39"
   height="39"
   viewBox="0 0 10.31875 10.31875"
   version="1.1"
   id="svg8"
   inkscape:version="0.92.3 (2405546, 2018-03-11)"
   sodipodi:docname="mine.svg">
  <defs
     id="defs2" />
  <sodipodi:namedview
     id="base"
     pagecolor="#ffffff"
     bordercolor="#666666"
     borderopacity="1.0"
     inkscape:pageopacity="0.0"
     inkscape:pageshadow="2"
     inkscape:zoom="21.205128"
     inkscape:cx="11.223069"
     inkscape:cy="19.015044"
     inkscape:document-units="mm"
     inkscape:current-layer="layer1"
     showgrid="false"
     inkscape:window-width="1920"
     inkscape:window-height="1015"
     inkscape:window-x="0"
     inkscape:window-y="0"
     inkscape:window-maximized="1"
     showguides="true"
     inkscape:guide-bbox="true"
     inkscape:snap-object-midpoints="true"
     inkscape:snap-global="false"
     units="px">
    <sodipodi:guide
       position="51.048479,178.66968"
       orientation="0,1"
       id="guide858"
       inkscape:locked="false" />
    <sodipodi:guide
       position="75.23637,178.66968"
       orientation="1,0"
       id="guide860"
       inkscape:locked="false" />
  </sodipodi:namedview>
  <metadata
     id="metadata5">
    <rdf:RDF>
      <cc:Work
         rdf:about="">
        <dc:format>image/svg+xml</dc:format>
        <dc:type
           rdf:resource="http://purl.org/dc/dcmitype/StillImage" />
        <dc:title />
      </cc:Work>
    </rdf:RDF>
  </metadata>
  <g
     inkscape:label="Layer 1"
     inkscape:groupmode="layer"
     id="layer1"
     transform="translate(0,-286.68123)">
    <g
       id="g927"
       transform="rotate(25.087422,5.159375,291.84062)">
      <path
         inkscape:connector-curvature="0"
         id="path1133"
         d="m 1.6068711,288.56501 a 0.35380406,0.35374577 5.7086797e-5 0 0 -0.00687,0.48222 l 0.00113,10e-4 a 0.35380406,0.35374577 5.7086797e-5 0 0 0.046136,0.0421 l 1.3700565,1.2591 a 0.35380406,0.35374577 5.7086797e-5 0 0 2.983e-4,3.8e-4 l 0.00113,0.001 a 0.35380406,0.35374577 5.7086797e-5 0 0 0.499538,0.0227 0.35380406,0.35374577 5.7086797e-5 0 0 0.023327,-0.49943 0.35380406,0.35374577 5.7086797e-5 0 0 -0.045904,-0.0421 l 9.443e-4,-10e-4 -1.4176232,-1.30281 -9.459e-4,0.001 a 0.35380406,0.35374577 5.7086797e-5 0 0 -0.4535922,0.0182 0.35380406,0.35374577 5.7086797e-5 0 0 -0.017631,0.0172 z"
         style="fill:#4d4d4d;fill-rule:evenodd;stroke-width:0.0327717" />
      <path
         style="fill:#4d4d4d;fill-rule:evenodd;stroke-width:0.0327717"
         d="m 0.33083241,292.03705 a 0.35380406,0.35374577 5.7086797e-5 0 0 0.33617965,0.34584 l 0.001656,6e-5 a 0.35380406,0.35374577 5.7086797e-5 0 0 0.0624266,-0.003 l 1.85924504,-0.0783 a 0.35380406,0.35374577 5.7086797e-5 0 0 4.775e-4,6e-5 l 0.00167,5e-5 a 0.35380406,0.35374577 5.7086797e-5 0 0 0.3692889,-0.33711 0.35380406,0.35374577 5.7086797e-5 0 0 -0.3367172,-0.36964 0.35380406,0.35374577 5.7086797e-5 0 0 -0.062231,0.003 l -8.71e-5,-10e-4 -1.92379828,0.081 5.888e-5,0.001 a 0.35380406,0.35374577 5.7086797e-5 0 0 -0.30789239,0.33353 0.35380406,0.35374577 5.7086797e-5 0 0 -2.8922e-4,0.0246 z"
         id="path1135"
         inkscape:connector-curvature="0" />
      <path
         inkscape:connector-curvature="0"
         id="path1137"
         d="m 1.8840451,295.39431 a 0.35380406,0.35374577 5.7086797e-5 0 0 0.4822985,0.007 l 0.00121,-0.001 a 0.35380406,0.35374577 5.7086797e-5 0 0 0.042192,-0.0461 l 1.2593135,-1.36983 a 0.35380406,0.35374577 5.7086797e-5 0 0 3.74e-4,-2.7e-4 l 0.00123,-10e-4 a 0.35380406,0.35374577 5.7086797e-5 0 0 0.022715,-0.49946 0.35380406,0.35374577 5.7086797e-5 0 0 -0.4995169,-0.0233 0.35380406,0.35374577 5.7086797e-5 0 0 -0.042104,0.0459 l -0.00107,-9.8e-4 -1.303036,1.41739 0.00103,9.9e-4 a 0.35380406,0.35374577 5.7086797e-5 0 0 0.018167,0.45351 0.35380406,0.35374577 5.7086797e-5 0 0 0.017222,0.0176 z"
         style="fill:#4d4d4d;fill-rule:evenodd;stroke-width:0.0327717" />
      <path
         style="fill:#4d4d4d;fill-rule:evenodd;stroke-width:0.0327717"
         d="m 4.9646777,287.01205 a 0.35380406,0.35374577 5.7086797e-5 0 0 -0.3458938,0.33612 l -5.85e-5,0.002 a 0.35380406,0.35374577 5.7086797e-5 0 0 0.00282,0.0624 l 0.078308,1.85894 a 0.35380406,0.35374577 5.7086797e-5 0 0 -4.68e-5,4.6e-4 l -5.84e-5,0.002 a 0.35380406,0.35374577 5.7086797e-5 0 0 0.3371646,0.36923 0.35380406,0.35374577 5.7086797e-5 0 0 0.3697064,-0.33666 0.35380406,0.35374577 5.7086797e-5 0 0 -0.00269,-0.0622 l 0.00139,-6e-5 -0.081027,-1.92348 -0.00139,6e-5 a 0.35380406,0.35374577 5.7086797e-5 0 0 -0.3335829,-0.30784 0.35380406,0.35374577 5.7086797e-5 0 0 -0.024644,-2.9e-4 z"
         id="path1139"
         inkscape:connector-curvature="0" />
      <path
         transform="matrix(-0.67678517,0.73618058,-0.73629167,-0.6766643,0,0)"
         d="m 207.88769,-201.63243 a 3.5162838,3.5163326 0 0 1 3.8194,-3.17988 3.5162838,3.5163326 0 0 1 3.18436,3.81567 3.5162838,3.5163326 0 0 1 -3.81184,3.18894 3.5162838,3.5163326 0 0 1 -3.19341,-3.80811"
         sodipodi:open="true"
         sodipodi:end="3.2285624"
         sodipodi:start="3.2333097"
         sodipodi:ry="3.5163326"
         sodipodi:rx="3.5162838"
         sodipodi:cy="-201.31038"
         sodipodi:cx="211.38919"
         sodipodi:type="arc"
         id="path1141"
         style="opacity:1;fill:#666666;fill-opacity:1;fill-rule:nonzero;stroke:none;stroke-width:0.62720138;stroke-linecap:round;stroke-miterlimit:4;stroke-dasharray:none;stroke-dashoffset:0;stroke-opacity:1" />
      <path
         style="fill:#4d4d4d;fill-rule:evenodd;stroke-width:0.0327717"
         d="m 8.711884,295.11625 a 0.35380406,0.35374577 5.7086797e-5 0 0 0.00687,-0.48222 l -0.00108,-10e-4 a 0.35380406,0.35374577 5.7086797e-5 0 0 -0.046136,-0.0421 l -1.3701064,-1.25908 a 0.35380406,0.35374577 5.7086797e-5 0 0 -2.984e-4,-3.7e-4 l -0.00113,-10e-4 a 0.35380406,0.35374577 5.7086797e-5 0 0 -0.499538,-0.0227 0.35380406,0.35374577 5.7086797e-5 0 0 -0.023327,0.49943 0.35380406,0.35374577 5.7086797e-5 0 0 0.045904,0.0421 l -9.444e-4,10e-4 1.4176232,1.30282 9.443e-4,-10e-4 a 0.35380406,0.35374577 5.7086797e-5 0 0 0.4535909,-0.0182 0.35380406,0.35374577 5.7086797e-5 0 0 0.017631,-0.0172 z"
         id="path1145"
         inkscape:connector-curvature="0" />
      <path
         inkscape:connector-curvature="0"
         id="path1147"
         d="m 9.9879227,291.6442 a 0.35380406,0.35374577 5.7086797e-5 0 0 -0.3361786,-0.34583 l -0.00166,-6e-5 a 0.35380406,0.35374577 5.7086797e-5 0 0 -0.062426,0.003 l -1.8592455,0.0783 a 0.35380406,0.35374577 5.7086797e-5 0 0 -4.775e-4,-5e-5 l -0.00167,-6e-5 a 0.35380406,0.35374577 5.7086797e-5 0 0 -0.3692889,0.33711 0.35380406,0.35374577 5.7086797e-5 0 0 0.3367172,0.36964 0.35380406,0.35374577 5.7086797e-5 0 0 0.062231,-0.003 l 8.71e-5,10e-4 1.923798,-0.081 -5.89e-5,-10e-4 a 0.35380406,0.35374577 5.7086797e-5 0 0 0.307893,-0.33353 0.35380406,0.35374577 5.7086797e-5 0 0 2.854e-4,-0.0246 z"
         style="fill:#4d4d4d;fill-rule:evenodd;stroke-width:0.0327717" />
      <path
         style="fill:#4d4d4d;fill-rule:evenodd;stroke-width:0.0327717"
         d="m 8.434711,288.28695 a 0.35380406,0.35374577 5.7086797e-5 0 0 -0.4822989,-0.007 l -0.00121,0.001 a 0.35380406,0.35374577 5.7086797e-5 0 0 -0.042192,0.0461 l -1.2593136,1.36983 a 0.35380406,0.35374577 5.7086797e-5 0 0 -3.739e-4,2.8e-4 l -0.00123,10e-4 a 0.35380406,0.35374577 5.7086797e-5 0 0 -0.022715,0.49945 0.35380406,0.35374577 5.7086797e-5 0 0 0.4995168,0.0233 0.35380406,0.35374577 5.7086797e-5 0 0 0.042104,-0.0459 l 0.00107,9.8e-4 1.3030365,-1.41739 -0.00107,-9.8e-4 a 0.35380406,0.35374577 5.7086797e-5 0 0 -0.018205,-0.45352 0.35380406,0.35374577 5.7086797e-5 0 0 -0.017223,-0.0176 z"
         id="path1149"
         inkscape:connector-curvature="0" />
      <path
         inkscape:connector-curvature="0"
         id="path1151"
         d="m 5.354078,296.6692 a 0.35380406,0.35374577 5.7086797e-5 0 0 0.3458939,-0.33612 l 5.85e-5,-0.002 a 0.35380406,0.35374577 5.7086797e-5 0 0 -0.00282,-0.0624 l -0.078308,-1.85894 a 0.35380406,0.35374577 5.7086797e-5 0 0 4.46e-5,-5.2e-4 l 5.85e-5,-0.002 a 0.35380406,0.35374577 5.7086797e-5 0 0 -0.3371646,-0.36922 0.35380406,0.35374577 5.7086797e-5 0 0 -0.3697063,0.33666 0.35380406,0.35374577 5.7086797e-5 0 0 0.00269,0.0622 l -0.00139,6e-5 0.081027,1.92347 0.00139,-5e-5 a 0.35380406,0.35374577 5.7086797e-5 0 0 0.3335829,0.30784 0.35380406,0.35374577 5.7086797e-5 0 0 0.024644,2.8e-4 z"
         style="fill:#4d4d4d;fill-rule:evenodd;stroke-width:0.0327717" />
      <g
         id="g1163"
         transform="matrix(0.05955417,0.00565411,-0.00565504,0.05954436,-14.986936,280.64194)"
         style="stroke:#000000">
        <path
           transform="scale(1,-1)"
           style="opacity:1;fill:none;fill-opacity:1;fill-rule:nonzero;stroke:#000000;stroke-width:2;stroke-linecap:round;stroke-miterlimit:4;stroke-dasharray:none;stroke-dashoffset:0;stroke-opacity:1"
           id="path1159"
           sodipodi:type="arc"
           sodipodi:cx="321.11087"
           sodipodi:cy="-163.4603"
           sodipodi:rx="6.8774905"
           sodipodi:ry="6.5155807"
           sodipodi:start="2.6890787"
           sodipodi:end="5.8889809"
           d="m 314.92559,-160.6115 a 6.8774905,6.5155807 0 0 1 0.56444,-6.60333 6.8774905,6.5155807 0 0 1 6.37555,-2.7217 6.8774905,6.5155807 0 0 1 5.59529,3.97377"
           sodipodi:open="true" />
        <path
           sodipodi:open="true"
           d="m -340.00721,-160.65874 a 6.8774905,6.5155807 0 0 1 0.56444,-6.60333 6.8774905,6.5155807 0 0 1 6.37555,-2.7217 6.8774905,6.5155807 0 0 1 5.59529,3.97377"
           sodipodi:end="5.8889809"
           sodipodi:start="2.6890787"
           sodipodi:ry="6.5155807"
           sodipodi:rx="6.8774905"
           sodipodi:cy="-163.50754"
           sodipodi:cx="-333.82193"
           sodipodi:type="arc"
           id="path1161"
           style="opacity:1;fill:none;fill-opacity:1;fill-rule:nonzero;stroke:#000000;stroke-width:2;stroke-linecap:round;stroke-miterlimit:4;stroke-dasharray:none;stroke-dashoffset:0;stroke-opacity:1"
           transform="scale(-1)" />
      </g>
      <path
         sodipodi:open="true"
         d="M 3.5612659,290.8938 A 0.6775884,0.28299662 0 0 1 3.1063708,291.16107 0.6775884,0.28299662 0 0 1 2.352468,291.06948 0.6775884,0.28299662 0 0 1 2.311814,290.742"
         sodipodi:end="3.7077491"
         sodipodi:start="0"
         sodipodi:ry="0.28299662"
         sodipodi:rx="0.6775884"
         sodipodi:cy="290.8938"
         sodipodi:cx="2.8836775"
         sodipodi:type="arc"
         id="path1171"
         style="opacity:1;fill:none;fill-opacity:1;fill-rule:nonzero;stroke:#000000;stroke-width:0.2567105;stroke-linecap:round;stroke-miterlimit:4;stroke-dasharray:none;stroke-dashoffset:0;stroke-opacity:1" />
      <path
         style="opacity:1;fill:none;fill-opacity:1;fill-rule:nonzero;stroke:#000000;stroke-width:0.2567105;stroke-linecap:round;stroke-miterlimit:4;stroke-dasharray:none;stroke-dashoffset:0;stroke-opacity:1"
         id="path1191"
         sodipodi:type="arc"
         sodipodi:cx="4.8049421"
         sodipodi:cy="291.06531"
         sodipodi:rx="0.6775884"
         sodipodi:ry="0.28299662"
         sodipodi:start="0"
         sodipodi:end="3.7077491"
         d="m 5.4825305,291.06531 a 0.6775884,0.28299662 0 0 1 -0.454895,0.26727 0.6775884,0.28299662 0 0 1 -0.7539028,-0.0916 0.6775884,0.28299662 0 0 1 -0.040654,-0.32748"
         sodipodi:open="true" />
    </g>
  </g>
</svg>
