<?xml version="1.0" encoding="UTF-8" standalone="no"?>
<!-- Created with Inkscape (http://www.inkscape.org/) -->

<svg
   xmlns:dc="http://purl.org/dc/elements/1.1/"
   xmlns:cc="http://creativecommons.org/ns#"
   xmlns:rdf="http://www.w3.org/1999/02/22-rdf-syntax-ns#"
   xmlns:svg="http://www.w3.org/2000/svg"
   xmlns="http://www.w3.org/2000/svg"
   xmlns:sodipodi="http://sodipodi.sourceforge.net/DTD/sodipodi-0.dtd"
   xmlns:inkscape="http://www.inkscape.org/namespaces/inkscape"
   width="39"
   height="39"
   viewBox="0 0 10.31875 10.31875"
   version="1.1"
   id="svg8"
   inkscape:version="0.92.3 (2405546, 2018-03-11)"
   sodipodi:docname="soothed.svg">
  <defs
     id="defs2" />
  <sodipodi:namedview
     id="base"
     pagecolor="#ffffff"
     bordercolor="#666666"
     borderopacity="1.0"
     inkscape:pageopacity="0.0"
     inkscape:pageshadow="2"
     inkscape:zoom="8"
     inkscape:cx="55.527759"
     inkscape:cy="3.5263151"
     inkscape:document-units="mm"
     inkscape:current-layer="layer1"
     showgrid="false"
     inkscape:window-width="1920"
     inkscape:window-height="1015"
     inkscape:window-x="0"
     inkscape:window-y="0"
     inkscape:window-maximized="1"
     showguides="true"
     inkscape:guide-bbox="true"
     inkscape:snap-object-midpoints="true"
     inkscape:snap-global="false"
     units="px">
    <sodipodi:guide
       position="51.048479,178.66968"
       orientation="0,1"
       id="guide858"
       inkscape:locked="false" />
    <sodipodi:guide
       position="75.23637,178.66968"
       orientation="1,0"
       id="guide860"
       inkscape:locked="false" />
  </sodipodi:namedview>
  <metadata
     id="metadata5">
    <rdf:RDF>
      <cc:Work
         rdf:about="">
        <dc:format>image/svg+xml</dc:format>
        <dc:type
           rdf:resource="http://purl.org/dc/dcmitype/StillImage" />
        <dc:title></dc:title>
      </cc:Work>
    </rdf:RDF>
  </metadata>
  <g
     inkscape:label="Layer 1"
     inkscape:groupmode="layer"
     id="layer1"
     transform="translate(0,-286.68123)">
    <g
       id="g890">
      <path
         inkscape:connector-curvature="0"
         id="path1133"
         d="m 3.3308682,287.36776 a 0.35380406,0.35374577 25.087479 0 0 -0.2106835,0.43382 l 5.994e-4,0.001 a 0.35380406,0.35374577 25.087479 0 0 0.023933,0.0577 l 0.7069488,1.72122 a 0.35380406,0.35374577 25.087479 0 0 1.091e-4,4.8e-4 l 5.994e-4,0.001 a 0.35380406,0.35374577 25.087479 0 0 0.4427877,0.23236 0.35380406,0.35374577 25.087479 0 0 0.232885,-0.44242 0.35380406,0.35374577 25.087479 0 0 -0.023723,-0.0576 l 0.00128,-5.1e-4 -0.731495,-1.78098 -0.00128,5.1e-4 a 0.35380406,0.35374577 25.087479 0 0 -0.418518,-0.17584 0.35380406,0.35374577 25.087479 0 0 -0.023261,0.008 z"
         style="fill:#5e3583;fill-rule:evenodd;stroke-width:0.0327717;fill-opacity:1" />
      <path
         style="fill:#5e3583;fill-rule:evenodd;stroke-width:0.0327717;fill-opacity:1"
         d="m 0.7030615,289.97121 a 0.35380406,0.35374577 25.087479 0 0 0.15782873,0.45576 l 0.001474,7.6e-4 a 0.35380406,0.35374577 25.087479 0 0 0.0578094,0.0238 l 1.71704664,0.7174 a 0.35380406,0.35374577 25.087479 0 0 4.07e-4,2.6e-4 l 0.00149,7.5e-4 a 0.35380406,0.35374577 25.087479 0 0 0.4773857,-0.14872 0.35380406,0.35374577 25.087479 0 0 -0.1482243,-0.47754 0.35380406,0.35374577 25.087479 0 0 -0.057632,-0.0237 l 3.451e-4,-9.4e-4 -1.7766548,-0.74234 -3.707e-4,9.3e-4 a 0.35380406,0.35374577 25.087479 0 0 -0.42026334,0.17152 0.35380406,0.35374577 25.087479 0 0 -0.0106924,0.0222 z"
         id="path1135"
         inkscape:connector-curvature="0" />
      <path
         inkscape:connector-curvature="0"
         id="path1137"
         d="m 0.68626675,293.67032 a 0.35380406,0.35374577 25.087479 0 0 0.43383135,0.21083 l 0.00152,-3.9e-4 a 0.35380406,0.35374577 25.087479 0 0 0.057758,-0.0239 l 1.721321,-0.70665 a 0.35380406,0.35374577 25.087479 0 0 4.532e-4,-9e-5 l 0.00154,-3.8e-4 a 0.35380406,0.35374577 25.087479 0 0 0.2323434,-0.44271 0.35380406,0.35374577 25.087479 0 0 -0.4425142,-0.2329 0.35380406,0.35374577 25.087479 0 0 -0.057594,0.0237 l -5.535e-4,-0.001 -1.78108433,0.73118 5.1307e-4,0.001 a 0.35380406,0.35374577 25.087479 0 0 -0.17583536,0.41843 0.35380406,0.35374577 25.087479 0 0 0.008135,0.0232 z"
         style="fill:#5e3583;fill-rule:evenodd;stroke-width:0.0327717;fill-opacity:1" />
      <path
         style="fill:#5e3583;fill-rule:evenodd;stroke-width:0.0327717;fill-opacity:1"
         d="m 7.0303617,287.38502 a 0.35380406,0.35374577 25.087479 0 0 -0.4557779,0.15775 l -9.01e-4,0.002 a 0.35380406,0.35374577 25.087479 0 0 -0.023904,0.0577 l -0.7172711,1.71678 a 0.35380406,0.35374577 25.087479 0 0 -2.374e-4,3.9e-4 l -9.009e-4,0.002 a 0.35380406,0.35374577 25.087479 0 0 0.1488034,0.47736 0.35380406,0.35374577 25.087479 0 0 0.477573,-0.14815 0.35380406,0.35374577 25.087479 0 0 0.023937,-0.0575 l 0.00128,5.3e-4 0.7421737,-1.77637 -0.00128,-5.4e-4 a 0.35380406,0.35374577 25.087479 0 0 -0.171589,-0.42024 0.35380406,0.35374577 25.087479 0 0 -0.022196,-0.0107 z"
         id="path1139"
         inkscape:connector-curvature="0" />
      <path
         transform="matrix(-0.92507956,0.37977337,-0.37992523,-0.9250172,0,0)"
         d="m 102.60413,-272.25599 a 3.5162838,3.5163326 0 0 1 3.8194,-3.17987 3.5162838,3.5163326 0 0 1 3.18437,3.81567 3.5162838,3.5163326 0 0 1 -3.81185,3.18894 3.5162838,3.5163326 0 0 1 -3.19341,-3.80811"
         sodipodi:open="true"
         sodipodi:end="3.2285624"
         sodipodi:start="3.2333097"
         sodipodi:ry="3.5163326"
         sodipodi:rx="3.5162838"
         sodipodi:cy="-271.93393"
         sodipodi:cx="106.10564"
         sodipodi:type="arc"
         id="path1141"
         style="opacity:1;fill:#5b5693;fill-opacity:1;fill-rule:nonzero;stroke:none;stroke-width:0.62720138;stroke-linecap:round;stroke-miterlimit:4;stroke-dasharray:none;stroke-dashoffset:0;stroke-opacity:1" />
      <path
         sodipodi:nodetypes="ccccccccccc"
         inkscape:connector-curvature="0"
         id="path874"
         d="m 3.0850191,292.25236 c -0.092775,0.2282 -0.1233516,0.38621 -0.012478,0.63322 l 0.2339499,0.23395 0.4772578,0.0156 0.6332243,-0.18092 0.3181718,-0.21836 0.2589046,-0.34 -0.053029,-0.13725 -0.6332244,0.13101 -0.7829523,-0.0218 z"
         style="fill:#ffffff;stroke:#000000;stroke-width:0;stroke-linecap:butt;stroke-linejoin:miter;stroke-miterlimit:4;stroke-dasharray:none;stroke-opacity:1" />
      <path
         style="fill:#5e3583;fill-rule:evenodd;stroke-width:0.0327717;fill-opacity:1"
         d="m 6.9878779,296.3135 a 0.35380406,0.35374577 25.087479 0 0 0.2106835,-0.43382 l -5.541e-4,-0.001 a 0.35380406,0.35374577 25.087479 0 0 -0.023933,-0.0577 L 6.4670716,294.0994 a 0.35380406,0.35374577 25.087479 0 0 -1.134e-4,-4.6e-4 l -5.994e-4,-0.001 a 0.35380406,0.35374577 25.087479 0 0 -0.4427877,-0.23237 0.35380406,0.35374577 25.087479 0 0 -0.232885,0.44243 0.35380406,0.35374577 25.087479 0 0 0.023723,0.0576 l -0.00128,5.1e-4 0.7314908,1.78098 0.00128,-5e-4 a 0.35380406,0.35374577 25.087479 0 0 0.4185168,0.17584 0.35380406,0.35374577 25.087479 0 0 0.02326,-0.008 z"
         id="path1145"
         inkscape:connector-curvature="0" />
      <path
         inkscape:connector-curvature="0"
         id="path1147"
         d="m 9.6156889,293.71004 a 0.35380406,0.35374577 25.087479 0 0 -0.157832,-0.45575 l -0.00148,-7.6e-4 a 0.35380406,0.35374577 25.087479 0 0 -0.057809,-0.0238 L 7.681523,292.51237 a 0.35380406,0.35374577 25.087479 0 0 -4.113e-4,-2.4e-4 l -0.00149,-7.7e-4 a 0.35380406,0.35374577 25.087479 0 0 -0.4773857,0.14873 0.35380406,0.35374577 25.087479 0 0 0.1482243,0.47754 0.35380406,0.35374577 25.087479 0 0 0.057632,0.0237 l -3.451e-4,9.4e-4 1.7766546,0.74233 3.706e-4,-9.3e-4 a 0.35380406,0.35374577 25.087479 0 0 0.4202639,-0.17151 0.35380406,0.35374577 25.087479 0 0 0.010689,-0.0222 z"
         style="fill:#5e3583;fill-rule:evenodd;stroke-width:0.0327717;fill-opacity:1" />
      <path
         style="fill:#5e3583;fill-rule:evenodd;stroke-width:0.0327717;fill-opacity:1"
         d="m 9.6324803,290.01094 a 0.35380406,0.35374577 25.087479 0 0 -0.4338317,-0.21083 l -0.00152,3.9e-4 a 0.35380406,0.35374577 25.087479 0 0 -0.057758,0.0239 l -1.7213211,0.70665 a 0.35380406,0.35374577 25.087479 0 0 -4.574e-4,1e-4 l -0.00154,3.8e-4 a 0.35380406,0.35374577 25.087479 0 0 -0.2323392,0.4427 0.35380406,0.35374577 25.087479 0 0 0.4425141,0.2329 0.35380406,0.35374577 25.087479 0 0 0.057594,-0.0237 l 5.535e-4,0.001 1.7810848,-0.73119 -5.536e-4,-0.001 a 0.35380406,0.35374577 25.087479 0 0 0.1758052,-0.41846 0.35380406,0.35374577 25.087479 0 0 -0.00814,-0.0232 z"
         id="path1149"
         inkscape:connector-curvature="0" />
      <path
         inkscape:connector-curvature="0"
         id="path1151"
         d="m 3.2883892,296.29624 a 0.35380406,0.35374577 25.087479 0 0 0.455778,-0.15776 l 9.01e-4,-0.002 a 0.35380406,0.35374577 25.087479 0 0 0.023904,-0.0577 l 0.7172711,-1.71678 a 0.35380406,0.35374577 25.087479 0 0 2.609e-4,-4.5e-4 l 9.01e-4,-0.002 a 0.35380406,0.35374577 25.087479 0 0 -0.1488077,-0.47735 0.35380406,0.35374577 25.087479 0 0 -0.4775729,0.14814 0.35380406,0.35374577 25.087479 0 0 -0.023937,0.0575 l -0.00128,-5.4e-4 -0.7421694,1.77637 0.00128,5.4e-4 a 0.35380406,0.35374577 25.087479 0 0 0.171589,0.42024 0.35380406,0.35374577 25.087479 0 0 0.0222,0.0107 z"
         style="fill:#5e3583;fill-rule:evenodd;stroke-width:0.0327717;fill-opacity:1" />
      <path
         sodipodi:open="true"
         d="m -179.05398,-311.35474 a 1.1090782,0.68471801 0 0 1 0.091,-0.69394 1.1090782,0.68471801 0 0 1 1.02813,-0.28602 1.1090782,0.68471801 0 0 1 0.90231,0.4176"
         sodipodi:end="5.8889809"
         sodipodi:start="2.6890787"
         sodipodi:ry="0.68471801"
         sodipodi:rx="1.1090782"
         sodipodi:cy="-311.65411"
         sodipodi:cx="-178.05653"
         sodipodi:type="arc"
         id="path1159"
         style="opacity:1;fill:none;fill-opacity:1;fill-rule:nonzero;stroke:#000000;stroke-width:0.26036066;stroke-linecap:round;stroke-miterlimit:4;stroke-dasharray:none;stroke-dashoffset:0;stroke-opacity:1"
         transform="matrix(0.97904299,-0.20365371,-0.57232405,-0.82002755,0,0)" />
      <path
         id="path1171"
         transform="matrix(0.26458333,0,0,0.26458333,0,286.68123)"
         d="M 11.701172 11.035156 A 2.560964 1.0695935 33.961612 0 0 10.962891 11.582031 A 2.560964 1.0695935 20.555462 0 0 11.068359 12.625 A 2.560964 1.0695935 20.555462 0 0 13.615234 13.949219 A 2.560964 1.0695935 20.555462 0 0 15.005859 14.001953 L 15.291016 14.148438 A 2.560964 1.0695935 33.961612 0 0 15.371094 13.855469 A 2.560964 1.0695935 20.555462 0 0 15.580078 13.607422 L 15.279297 13.451172 A 2.560964 1.0695935 33.961612 0 0 14.429688 12.351562 A 2.560964 1.0695935 33.961612 0 0 11.873047 11.046875 A 2.560964 1.0695935 33.961612 0 0 11.701172 11.035156 z "
         style="opacity:1;fill:#000000;fill-opacity:1;fill-rule:nonzero;stroke:#000000;stroke-width:0.97024441;stroke-linecap:round;stroke-miterlimit:4;stroke-dasharray:none;stroke-dashoffset:0;stroke-opacity:1" />
      <path
         id="path1191"
         transform="matrix(0.26458333,0,0,0.26458333,0,286.68123)"
         d="M 18.085938 14.554688 A 2.560964 1.0695935 33.961612 0 0 17.371094 14.929688 A 2.560964 1.0695935 33.961612 0 0 17.369141 14.933594 A 2.560964 1.0695935 20.555462 0 0 17.435547 15.498047 A 2.560964 1.0695935 33.961612 0 0 17.439453 15.505859 A 2.560964 1.0695935 20.555462 0 0 17.441406 15.505859 A 2.560964 1.0695935 20.555462 0 0 17.640625 15.78125 A 2.560964 1.0695935 20.555462 0 0 20.1875 17.105469 A 2.560964 1.0695935 20.555462 0 0 20.748047 17.195312 L 21.675781 17.667969 A 2.560964 1.0695935 33.961612 0 0 21.716797 17.121094 A 2.560964 1.0695935 20.555462 0 0 22.150391 16.763672 L 21.212891 16.275391 A 2.560964 1.0695935 33.961612 0 0 20.814453 15.869141 A 2.560964 1.0695935 33.961612 0 0 18.257812 14.564453 A 2.560964 1.0695935 33.961612 0 0 18.085938 14.554688 z "
         style="opacity:1;fill:#000000;fill-opacity:1;fill-rule:nonzero;stroke:#000000;stroke-width:0.97024441;stroke-linecap:round;stroke-miterlimit:4;stroke-dasharray:none;stroke-dashoffset:0;stroke-opacity:1" />
      <path
         transform="matrix(0.78626933,-0.61788392,-0.87734322,-0.47986339,0,0)"
         style="opacity:1;fill:none;fill-opacity:1;fill-rule:nonzero;stroke:#000000;stroke-width:0.26036066;stroke-linecap:round;stroke-miterlimit:4;stroke-dasharray:none;stroke-dashoffset:0;stroke-opacity:1"
         id="path872"
         sodipodi:type="arc"
         sodipodi:cx="-276.89377"
         sodipodi:cy="-252.82826"
         sodipodi:rx="1.1090782"
         sodipodi:ry="0.68471801"
         sodipodi:start="2.6890787"
         sodipodi:end="5.8889809"
         d="m -277.89122,-252.52888 a 1.1090782,0.68471801 0 0 1 0.091,-0.69394 1.1090782,0.68471801 0 0 1 1.02814,-0.28603 1.1090782,0.68471801 0 0 1 0.90231,0.41761"
         sodipodi:open="true" />
    </g>
  </g>
</svg>
